<svg width="68" height="85" viewBox="0 0 68 85" fill="none" xmlns="http://www.w3.org/2000/svg">
<path d="M6.84 0.36V22.932H25.92V27H2.16V0.36H6.84ZM55.5792 0.36H51.0792V4.176H55.5792V0.36ZM55.5792 27H51.0792V5.22H55.5792V27ZM20.952 57.38H26.568L17.712 67.28L26.568 77H20.952L13.464 68.9L5.976 77H0.36L9.252 67.28L0.36 57.38H5.976L13.464 65.588L20.952 57.38ZM67.5236 57.38L56.0036 81.428C55.4276 82.508 54.4316 83.216 53.0156 83.552C51.6236 83.912 49.8836 84.092 47.7956 84.092L47.7596 79.664C48.8636 79.664 49.6436 79.556 50.0996 79.34C50.5556 79.148 50.7836 78.86 50.7836 78.476C50.7836 78.212 50.6876 77.888 50.4956 77.504C50.3276 77.144 50.2196 76.916 50.1716 76.82L40.0556 57.38H45.1316L54.1676 76.172L62.4476 57.38H67.5236Z" fill="black"/>
</svg>
